HIERARCHY
ROOT Hips
{
	OFFSET -0.001795 -0.223333 0.028219
	CHANNELS 6 Xposition Yposition Zposition Zrotation Yrotation Xrotation 
	JOINT LeftUpLeg
	{
		OFFSET 0.069520 -0.091406 -0.006815
		CHANNELS 3 Zrotation Yrotation Xrotation
		JOINT LeftLeg
		{
			OFFSET 0.034277 -0.375199 -0.004496
			CHANNELS 3 Zrotation Yrotation Xrotation
			JOINT LeftFoot
			{
				OFFSET -0.013596 -0.397961 -0.043693
				CHANNELS 3 Zrotation Yrotation Xrotation
				JOINT LeftToe
				{
					OFFSET 0.026358 -0.055791 0.119288
					CHANNELS 3 Zrotation Yrotation Xrotation
					End Site
					{
						OFFSET 0.000000 0.000000 0.000000
					}
				}
			}
		}
	}
	JOINT RightUpLeg
	{
		OFFSET -0.067670 -0.090522 -0.004320
		CHANNELS 3 Zrotation Yrotation Xrotation
		JOINT RightLeg
		{
			OFFSET -0.038290 -0.382569 -0.008850
			CHANNELS 3 Zrotation Yrotation Xrotation
			JOINT RightFoot
			{
				OFFSET 0.015774 -0.398415 -0.042312
				CHANNELS 3 Zrotation Yrotation Xrotation
				JOINT RightToe
				{
					OFFSET -0.025372 -0.048144 0.123348
					CHANNELS 3 Zrotation Yrotation Xrotation
					End Site
					{
						OFFSET 0.000000 0.000000 0.000000
					}
				}
			}
		}
	}
	JOINT Spine
	{
		OFFSET -0.002533 0.108963 -0.026696
		CHANNELS 3 Zrotation Yrotation Xrotation
		JOINT Spine1
		{
			OFFSET 0.005487 0.135180 0.001092
			CHANNELS 3 Zrotation Yrotation Xrotation
			JOINT Spine2
			{
				OFFSET 0.001457 0.052922 0.025425
				CHANNELS 3 Zrotation Yrotation Xrotation
				JOINT Neck
				{
					OFFSET -0.002778 0.213870 -0.042857
					CHANNELS 3 Zrotation Yrotation Xrotation
					JOINT Head
					{
						OFFSET 0.005152 0.064970 0.051349
						CHANNELS 3 Zrotation Yrotation Xrotation
						End Site
						{
							OFFSET 0.000000 0.000000 0.000000
						}
					}
				}
				JOINT LeftShoulder
				{
					OFFSET 0.078845 0.121749 -0.034090
					CHANNELS 3 Zrotation Yrotation Xrotation
					JOINT LeftArm
					{
						OFFSET 0.090977 0.030469 -0.008868
						CHANNELS 3 Zrotation Yrotation Xrotation
						JOINT LeftForeArm
						{
							OFFSET 0.259612 -0.012772 -0.027456
							CHANNELS 3 Zrotation Yrotation Xrotation
							JOINT LeftHand
							{
								OFFSET 0.249234 0.008986 -0.001171
								CHANNELS 3 Zrotation Yrotation Xrotation
								End Site
								{
									OFFSET 0.000000 0.000000 0.000000
								}
							}
						}
					}
				}
				JOINT RightShoulder
				{
					OFFSET -0.081759 0.118833 -0.038615
					CHANNELS 3 Zrotation Yrotation Xrotation
					JOINT RightArm
					{
						OFFSET -0.096012 0.032551 -0.009143
						CHANNELS 3 Zrotation Yrotation Xrotation
						JOINT RightForeArm
						{
							OFFSET -0.253742 -0.013329 -0.021401
							CHANNELS 3 Zrotation Yrotation Xrotation
							JOINT RightHand
							{
								OFFSET -0.255298 0.007772 -0.005559
								CHANNELS 3 Zrotation Yrotation Xrotation
								End Site
								{
									OFFSET 0.000000 0.000000 0.000000
								}
							}
						}
					}
				}
			}
		}
	}
}
MOTION
Frames: 10
Frame Time: 0.050000
0.000000 0.890288 0.000000 -1.806923 -18.485548 -6.446261 4.030025 -0.190786 -25.970349 -3.909520 1.759663 22.499415 3.316379 7.071088 2.221513 0.000000 0.000000 0.000000 6.180153 -0.891278 6.077860 0.657096 0.888421 14.599437 -5.291846 -0.155732 -16.969780 0.000000 0.000000 0.000000 1.031331 -0.344060 11.006757 -4.838960 2.342586 -0.342560 5.808776 6.413953 7.683700 0.436943 0.256457 -11.855074 0.000000 0.000000 0.000000 -32.155146 -0.124157 -1.426842 -44.683112 2.029094 -6.749148 -10.879063 -34.663476 5.110909 0.000000 0.000000 0.000000 27.765605 9.172839 1.516903 41.421767 14.387561 0.954930 0.780209 36.132320 1.103567 0.000000 0.000000 0.000000 
-0.012041 0.886952 0.039341 -3.685865 -19.607535 -4.873322 5.600089 0.348456 -26.253949 -2.626632 0.402067 0.986045 7.809143 14.830051 38.382724 0.000000 0.000000 0.000000 7.922411 -1.394338 9.192670 0.030731 0.784966 12.020453 -4.926616 1.586518 -17.002787 0.000000 0.000000 0.000000 2.035221 -0.370610 8.515343 -5.331613 2.491891 -1.359639 8.057708 6.375989 9.330492 -1.728962 1.655822 -13.252001 0.000000 0.000000 0.000000 -34.803066 1.601286 -2.278139 -42.956684 4.417179 -7.547581 -12.581645 -32.742672 5.395331 0.000000 0.000000 0.000000 23.918593 7.718037 0.584405 45.204840 14.027126 0.857677 -0.092014 39.868149 0.796903 0.000000 0.000000 0.000000 
-0.023029 0.880452 0.080655 -3.289007 -19.885802 -4.986231 4.246714 -0.084976 -24.527492 -0.326162 0.388114 -9.107583 16.723695 22.569810 53.291307 0.000000 0.000000 0.000000 5.925870 -1.555378 13.375908 1.883116 0.308004 9.784528 -4.858871 2.905058 -17.942917 0.000000 0.000000 0.000000 1.768970 -0.351902 8.437451 -4.834955 2.113062 -2.905660 6.162981 6.782421 10.431667 -0.438067 0.711183 -9.899204 0.000000 0.000000 0.000000 -34.013343 0.747927 -1.712775 -44.596339 6.897888 -8.709192 -8.094907 -30.087820 3.683827 0.000000 0.000000 0.000000 28.030309 6.955031 -0.069700 42.689880 12.787944 0.290322 1.905446 41.103958 1.637419 0.000000 0.000000 0.000000 
-0.032730 0.877487 0.123303 -2.478491 -21.383849 -5.493329 4.412717 0.057669 -24.392130 -1.371073 0.300496 -4.736094 12.639080 19.430874 40.753963 0.000000 0.000000 0.000000 5.021929 -1.566015 16.820527 0.183848 0.527413 9.195934 -4.408032 4.160350 -17.290781 0.000000 0.000000 0.000000 0.779117 -0.249430 6.765550 -5.528740 2.524273 -1.902393 6.267947 6.797535 10.649745 -0.865957 0.915295 -8.255356 0.000000 0.000000 0.000000 -34.633245 2.800261 -2.949701 -44.178284 7.562005 -8.918512 -8.955518 -29.190018 3.830772 0.000000 0.000000 0.000000 27.065274 7.397290 0.013790 45.238398 11.305473 -0.161095 3.670956 41.039543 2.190729 0.000000 0.000000 0.000000 
-0.040301 0.872685 0.167211 -2.261480 -21.343727 -5.304813 3.862233 -0.088704 -24.505527 -1.859216 0.294636 -0.979625 13.380930 20.358286 36.414474 0.000000 0.000000 0.000000 4.108207 -1.516177 19.840461 0.096503 0.471066 8.334552 -3.719193 4.339094 -15.577914 0.000000 0.000000 0.000000 -0.152328 -0.201102 6.697327 -6.220736 2.870984 -1.830099 6.523527 6.103317 10.042931 -1.296160 1.161029 -7.698546 0.000000 0.000000 0.000000 -35.658787 3.167512 -3.011642 -43.714401 7.263895 -8.783943 -7.573064 -26.692128 3.157424 0.000000 0.000000 0.000000 28.237141 6.894964 -0.741500 45.818915 9.443864 -0.666210 5.077971 40.218108 2.548472 0.000000 0.000000 0.000000 
-0.044932 0.867923 0.211361 -1.704126 -21.947025 -4.329601 3.793986 -0.030860 -25.408383 -3.706278 0.638522 2.826942 16.354758 23.826708 32.455057 0.000000 0.000000 0.000000 2.429550 -1.142497 20.235802 0.542509 0.599808 10.837581 -3.367710 3.778491 -13.995817 0.000000 0.000000 0.000000 -0.538276 -0.161408 5.592537 -6.299908 2.906162 -1.802786 5.861366 5.643401 10.653071 -1.981120 1.615190 -8.903951 0.000000 0.000000 0.000000 -35.928797 3.590865 -2.965449 -44.438343 6.534253 -8.837039 -7.340242 -25.781914 3.037821 0.000000 0.000000 0.000000 28.118815 6.785965 -1.060414 46.425381 7.755442 -1.280730 6.607756 39.910019 2.998575 0.000000 0.000000 0.000000 
-0.046458 0.866453 0.255218 -0.798844 -21.328664 -3.107788 2.848037 -0.285540 -26.832011 -5.746960 1.224532 6.801946 17.471839 26.163795 26.552067 0.000000 0.000000 0.000000 0.997323 -0.869120 19.544684 0.880540 0.774433 13.662695 -2.864105 0.698919 -9.567516 0.000000 0.000000 0.000000 -1.135033 -0.115438 4.746892 -6.504354 2.971974 -2.085064 5.238185 5.329775 9.865386 -1.889854 1.538372 -10.056606 0.000000 0.000000 0.000000 -35.626283 4.034399 -3.287700 -44.835625 5.753992 -8.579202 -5.662952 -24.788520 2.553765 0.000000 0.000000 0.000000 27.953920 6.303493 -1.371302 47.112159 5.681289 -2.017307 5.905724 38.803480 2.662346 0.000000 0.000000 0.000000 
-0.046167 0.868512 0.298720 -0.105666 -20.829963 -1.703722 1.859513 -0.582129 -27.683825 -7.403405 1.836204 9.789452 17.938414 27.973537 21.470924 0.000000 0.000000 0.000000 -0.746518 -0.526398 18.179073 1.767979 0.890659 16.986197 -1.517244 -1.457315 -2.762290 0.000000 0.000000 0.000000 -1.298631 -0.095631 4.399644 -6.996402 3.207587 -2.098046 4.862535 4.638173 9.402832 -2.680708 2.055980 -11.008531 0.000000 0.000000 0.000000 -35.406540 3.254338 -2.564424 -45.032269 4.183500 -8.064897 -4.211631 -24.541441 2.211698 0.000000 0.000000 0.000000 27.302136 5.590583 -1.845886 47.729030 4.763814 -2.368823 8.057672 38.230492 3.290036 0.000000 0.000000 0.000000 
-0.045842 0.874768 0.343227 0.645354 -20.338648 -1.049298 0.853606 -0.912835 -27.394887 -9.060948 2.557314 12.515632 17.893484 29.032105 17.676699 0.000000 0.000000 0.000000 -2.327382 -0.220899 16.878841 2.841355 1.042937 21.364656 -0.557289 -4.929048 5.973050 0.000000 0.000000 0.000000 -1.399602 -0.082462 4.172669 -7.573934 3.410646 -2.795641 4.424596 4.683148 10.028344 -2.990022 2.289003 -11.623251 0.000000 0.000000 0.000000 -35.384234 2.564335 -2.094988 -44.675155 1.435329 -7.131435 -2.289119 -23.792242 1.743239 0.000000 0.000000 0.000000 26.839633 5.115594 -1.940678 48.241319 4.538821 -2.591756 8.424567 37.700952 3.398897 0.000000 0.000000 0.000000 
-0.046226 0.883964 0.388502 1.209034 -19.023238 -0.582724 -1.575532 -1.650472 -26.374770 -8.102397 2.463185 14.841844 17.176058 29.043933 14.819995 0.000000 0.000000 0.000000 -3.925221 0.008789 14.107685 3.961498 1.419753 28.663506 1.818056 -3.671344 12.348186 0.000000 0.000000 0.000000 -1.689723 -0.047398 2.992980 -8.364975 3.865858 -2.217187 4.512231 3.576485 10.359405 -3.678816 2.712534 -12.134907 0.000000 0.000000 0.000000 -34.636661 1.765729 -1.245759 -45.037258 -0.190028 -6.703027 0.133972 -24.092206 1.293724 0.000000 0.000000 0.000000 26.101089 4.173644 -2.508390 49.517706 4.301930 -2.814081 10.723062 35.237667 3.824331 0.000000 0.000000 0.000000 
